<svg width="120" height="76" viewBox="0 0 120 76" fill="none" xmlns="http://www.w3.org/2000/svg">
<path d="M60.1048 31.739C61.8204 31.7377 63.4825 31.1822 64.8077 30.1673C66.1329 29.1523 67.0393 27.7408 67.3723 26.1731C67.7054 24.6054 67.4445 22.9787 66.6341 21.5702C65.8237 20.1616 64.514 19.0584 62.9282 18.4485C61.3424 17.8386 59.5787 17.7599 57.9375 18.2256C56.2963 18.6913 54.8793 19.6728 53.928 21.0027C52.9766 22.3325 52.5498 23.9285 52.7203 25.5187C52.8908 27.1088 53.648 28.5947 54.8629 29.7231C55.5507 30.3645 56.368 30.8728 57.2676 31.2188C58.1673 31.5647 59.1315 31.7416 60.1048 31.739Z" fill="#FECC07"/>
<path d="M59.6357 47.9823C45.4812 41.5716 30.948 38.4872 17.9947 38.4892C12.7471 38.4618 7.51502 39.0236 2.41174 40.1625C2.33816 40.3177 2.26024 40.4689 2.19531 40.6241C3.0264 40.5878 3.86398 40.5677 4.70806 40.5677C13.5167 40.5677 23.0786 42.4828 32.6664 46.1881C42.2543 49.8934 51.8702 55.3929 60.772 62.5878C65.6168 66.4979 70.081 70.7992 74.1127 75.4415H95.6171C87.6157 64.88 75.1819 55.024 59.6357 47.9823Z" fill="#A6C740"/>
<path d="M80.3247 31.1277C73.8594 34.7584 68.4054 39.7591 64.4062 45.7232C65.6399 46.9448 66.8259 48.1282 67.9514 49.1845C68.6512 49.5622 69.3445 49.9445 70.0313 50.3316C76.3445 44.8686 84.1264 41.0978 92.5528 39.4184C100.979 37.7391 109.736 38.2137 117.897 40.7922C116.313 37.2467 113.905 34.0722 110.846 31.4969C107.788 28.9217 104.155 27.0097 100.208 25.8984C98.6498 25.4742 97.0049 25.4051 95.412 25.6968C90.077 26.6598 84.9684 28.4987 80.3247 31.1277Z" fill="#56BB8F"/>
<path d="M45.3218 31.7005C49.0613 33.7428 52.6688 35.9877 56.126 38.4237C58.3249 39.9719 60.4069 41.8508 62.3829 43.7478L62.4414 43.8062C65.8154 38.9245 70.1301 34.6664 75.1674 31.2469L75.0462 31.1965C76.1938 28.8471 76.6843 26.2654 76.4721 23.6918C76.2598 21.1183 75.3517 18.6366 73.8323 16.4781C72.3129 14.3195 70.2316 12.5543 67.7825 11.3468C65.3333 10.1394 62.5958 9.52897 59.8251 9.57249C57.0545 9.616 54.3407 10.312 51.9366 11.5957C49.5325 12.8794 47.5164 14.709 46.0759 16.914C44.6355 19.119 43.8177 21.6278 43.6987 24.2065C43.5797 26.7853 44.1634 29.3502 45.3954 31.6622L45.3218 31.7005ZM52.912 18.1453C54.5762 16.5955 56.7657 15.6312 59.1076 15.4165C61.4495 15.2018 63.7989 15.7501 65.7555 16.9679C67.7121 18.1857 69.1549 19.9977 69.8381 22.0953C70.5212 24.1928 70.4025 26.4461 69.5021 28.4712C68.6017 30.4963 66.9753 32.168 64.9001 33.2015C62.8249 34.235 60.4291 34.5663 58.121 34.1391C55.813 33.7118 53.7353 32.5523 52.2421 30.8582C50.7488 29.1641 49.9323 27.0402 49.9317 24.8483C49.9297 23.6032 50.192 22.37 50.7035 21.2197C51.2149 20.0693 51.9655 19.0245 52.912 18.1453Z" fill="#EC7323"/>
<path d="M70.5262 75.4421C66.9788 71.5328 63.1112 67.8857 58.958 64.5338C50.2748 57.5143 40.9034 52.16 31.597 48.5655C22.2905 44.9711 13.0836 43.1406 4.7056 43.1406C3.51091 43.1406 2.3357 43.1809 1.1778 43.2555C0.679796 44.7968 0.337789 46.3782 0.15625 47.9789C15.5033 50.1097 32.2636 57.3893 47.0609 69.3479C49.4243 71.259 51.6665 73.2286 53.7875 75.2566L53.5841 75.4421H70.5262Z" fill="#126A39"/>
<path d="M17.9929 35.9151C31.2406 35.9151 45.9426 39.0217 60.2746 45.4203C58.3808 43.606 56.4243 41.8601 54.457 40.4752C45.934 34.4717 36.9262 29.9419 28.0331 26.922C25.959 26.2109 23.7499 25.9057 21.5436 26.0253C19.3372 26.145 17.181 26.687 15.2096 27.6175C10.6394 29.7919 6.80034 33.0966 4.11328 37.169C8.68338 36.3212 13.3331 35.9011 17.9929 35.9151Z" fill="#56BB8F"/>
<path d="M102.525 41.0157C91.4131 40.9975 80.6906 44.8279 72.4414 51.7627C83.6633 58.5141 92.7144 66.7351 98.9519 75.444H100.421C101.635 75.445 102.842 75.2723 103.999 74.9319C115.613 72.8837 120 63.3765 120 50.7406C120.004 48.4402 119.679 46.1494 119.034 43.9287C113.777 41.9977 108.176 41.0094 102.525 41.0157Z" fill="#0D3F4A"/>
<path d="M45.2533 71.2945C30.904 59.6927 14.6696 52.647 0 50.5625C0 50.6189 0 50.6754 0 50.7318C0 65.045 6.84567 75.7295 22.2165 75.7295C23.6954 75.7276 25.1726 75.634 26.6382 75.4493H50.0818C48.5351 74.0341 46.9255 72.6492 45.2533 71.2945Z" fill="#126A39"/>
<path d="M60.1077 6.96912C63.0076 6.96915 65.8697 7.58161 68.4789 8.76042C71.088 9.93923 73.3763 11.6537 75.1716 13.775C76.9668 15.8962 78.2224 18.369 78.8439 21.0073C79.4654 23.6457 79.4366 26.3809 78.7596 29.0074L78.8981 28.9268C81.4013 27.5179 84.0332 26.3178 86.7632 25.3404C86.7632 25.1731 86.774 25.0058 86.774 24.8384C86.774 18.2509 83.9645 11.9331 78.9636 7.27501C73.9627 2.6169 67.18 0 60.1077 0C53.0354 0 46.2527 2.6169 41.2518 7.27501C36.2509 11.9331 33.4414 18.2509 33.4414 24.8384C33.4414 25.2819 33.4566 25.7234 33.4804 26.1609C36.2218 27.2361 38.9553 28.4524 41.6809 29.8098C40.8527 27.1479 40.7006 24.343 41.2368 21.6169C41.7729 18.8909 42.9825 16.3183 44.77 14.1027C46.5574 11.8871 48.8737 10.0892 51.5357 8.85113C54.1976 7.61304 57.1323 6.96872 60.1077 6.96912Z" fill="#FAB517"/>
</svg>
